# xmcd CD database file
#
# Track frame offsets:
#	150
#	14885
#	27102
#	43337
#	54957
#	70267
#	84810
#	101102
#	121197
#	136205
#	153782
#	169440
#	188142
#	205222
#	218585
#	235847
#	254600
#	269995
#	286330
#	308787
#	331320
#
# Disc length: 4638 seconds
#
# Revision: 6
# Processed by: cddbd v1.5.2PL0 Copyright (c) Steve Scherf et al.
# Submitted via: CDex 1.70beta3
#
DISCID=35121c15
DTITLE=Pink Lady - BEST
DYEAR=2005
DGENRE=JPop
TTITLE0=ペッパー警部
TTITLE1=S・O・S
TTITLE2=カルメン'77
TTITLE3=渚のシンドバッド
TTITLE4=ウォンテッド(指名手配)
TTITLE5=UFO
TTITLE6=サウスポー
TTITLE7=モンスター
TTITLE8=透明人間
TTITLE9=カメレオン・アーミー
TTITLE10=ジパング
TTITLE11=ピンク・タイフーン(In The Navy)
TTITLE12=波乗りパイレーツ
TTITLE13=KISS IN THE DARK
TTITLE14=マンデー・モナリザ・クラブ
TTITLE15=DO YOUR BEST
TTITLE16=うたかた
TTITLE17=LAST PRETENDER
TTITLE18=OH!
TTITLE19=2年目のジンクス
TTITLE20=ポロロッカ
EXTD=YEAR: 2005
EXTT0=
EXTT1=
EXTT2=
EXTT3=
EXTT4=
EXTT5=
EXTT6=
EXTT7=
EXTT8=
EXTT9=
EXTT10=
EXTT11=
EXTT12=
EXTT13=
EXTT14=
EXTT15=
EXTT16=
EXTT17=
EXTT18=
EXTT19=
EXTT20=
PLAYORDER=
